<?xml version="1.0" encoding="UTF-8"?><svg id="Calque_2" xmlns="http://www.w3.org/2000/svg" viewBox="0 0 320.34 239.69"><defs><style>.cls-1{fill:#2c8b57;stroke:#fff;stroke-miterlimit:10;}</style></defs><g id="Calque_2-2"><path class="cls-1" d="M222.72,196.17c0,43.02-31.48,43.02-31.48,43.02H32.6S.5,239.19,.5,196.17s31.49-43.02,31.49-43.02h36.6v-50.21s0-35.83,43.02-35.83,43.02,35.15,43.02,35.15v50.89h36s32.09,0,32.09,43.02Z"/><path class="cls-1" d="M319.84,66.66V201.4s0,37.79-43.02,37.79-43.03-37.07-43.03-37.07l.5-84.58c-3.61,7.09-11.15,14.14-26.85,14.64-32.12,1.02-36.56-35.02-32.98-41.66,3.87-7.2,16.87-8.67,12.53-19.57-4.87-12.26-1.59-16.92,8.74-16.51s7.25,8.51,15.57,10.77c19.82,5.37,23.93-10.71,24.21-11.16h.01c.65-2.37,1.49-4.68,2.53-6.9,4.97-10.67,15.71-22.69,38.76-21.93,21.34,.7,32.12,10.73,37.55,20.17,3.68,6.4,5.47,13.81,5.47,21.29Z"/><path class="cls-1" d="M126.05,56.13c12.72,2.04,19.64,9.41,24.35,16.43,1.39,2.07,.81,1.97,2.2,4.17,4.45,7.05,15.06,10.55,26.55,0,8.21-7.54-9.28-24.83,2.04-29.79,8.17-3.57,12.77,3.59,18.55-2.04,13.11-12.77-16.51-57.45-36.93-40.68s-27.91,14.3-35.06,11.91-25.7-10.55-38.42,6.11,1.82,37.55,18.85,35.17c6.5-.91,13.76-1.94,17.87-1.28Z"/></g></svg>